# xmcd
#
# Track frame offsets:
#	150
#	10134
#	26023
#	41290
#	51066
#	65124
#	76298
#	87267
#	101917
#	116033
#	138158
#	153784
#	167066
#	175511
#	190972
#	206404
#	218666
#
# Disc length: 3056 seconds
#
# Revision: 3
# Processed by: cddbd v1.5.1PL2 Copyright (c) Steve Scherf et al.
# Submitted via: dBpowerAMP V4.0
#
DISCID=da0bee11
DTITLE=Various Artist - Best of the Blues
DYEAR=2004
DGENRE=Blues
TTITLE0=Buddy Guy - First Time I Met the Blues
TTITLE1=Memphis Slim - Forty Four Blues
TTITLE2=Johnny Otis - Bad Luck Shadow
TTITLE3=Baby Washington - Nobody Cares
TTITLE4=Joe Liggins - Goin' Back to L.A.
TTITLE5=Amos Milbourne - Bad Bad Whiskey
TTITLE6=Roy Milton - Information Blues
TTITLE7=Gatemouth Moore - I Ain't Mad at You Baby
TTITLE8=Jelly Roll Morton - London Blues
TTITLE9=Joe Turner - Wee Baby Blues
TTITLE10=Eddie "Clean Head" Vinson - I'm The Midnight Creeper
TTITLE11=Dinah Washington - Rich Man's Blues
TTITLE12=Big Joe Williams - Baby, Please Don't Go
TTITLE13=Gatemouth Moore - Somebody Got to Go
TTITLE14=Amos Milbourne - So Tired
TTITLE15=Amos Milbourne - C.C. Rider
TTITLE16=Billie Holiday - Lover Come Back to Me
EXTD=Current track info for this compilation album does not contain artist info.  I am submitting corrected track information that includes artist info in the proper format.
EXTT0=
EXTT1=
EXTT2=
EXTT3=
EXTT4=
EXTT5=
EXTT6=
EXTT7=
EXTT8=
EXTT9=
EXTT10=
EXTT11=
EXTT12=
EXTT13=
EXTT14=
EXTT15=
EXTT16=
PLAYORDER=
